<svg xmlns="http://www.w3.org/2000/svg" viewBox="0 0 200 200" fill="none">
  <defs>
    <linearGradient id="vorluno-gradient" x1="0%" y1="0%" x2="100%" y2="100%">
      <stop offset="0%" style="stop-color:#7C3AED;stop-opacity:1" />
      <stop offset="100%" style="stop-color:#06B6D4;stop-opacity:1" />
    </linearGradient>
  </defs>

  <!-- Fondo -->
  <rect width="200" height="200" fill="#0F172A" rx="20"/>

  <!-- Logo V con gradiente -->
  <path d="M 50 60 L 70 130 L 90 60 L 110 60 L 80 150 L 60 150 L 30 60 Z" fill="url(#vorluno-gradient)"/>

  <!-- Logo C con gradiente -->
  <path d="M 120 90 Q 120 70, 140 70 Q 160 70, 160 90 L 160 120 Q 160 140, 140 140 Q 120 140, 120 120 L 130 120 Q 130 130, 140 130 Q 150 130, 150 120 L 150 90 Q 150 80, 140 80 Q 130 80, 130 90 Z" fill="url(#vorluno-gradient)"/>

  <!-- Puntos decorativos -->
  <circle cx="170" cy="100" r="4" fill="#06B6D4"/>
  <circle cx="170" cy="115" r="4" fill="#7C3AED"/>
  <circle cx="170" cy="130" r="4" fill="#A78BFA"/>
</svg>
